<mxfile host="app.diagrams.net" agent="Mozilla/5.0 (Windows NT 10.0; Win64; x64) AppleWebKit/537.36 (KHTML, like Gecko) Chrome/128.0.0.0 Safari/537.36 Edg/128.0.0.0" version="24.7.8">
  <diagram name="Page-1" id="IPZM-3Ij8Xc5iA5HIZ7i">
    <mxGraphModel dx="1002" dy="567" grid="1" gridSize="10" guides="1" tooltips="1" connect="1" arrows="1" fold="1" page="1" pageScale="1" pageWidth="850" pageHeight="1100" math="0" shadow="0">
      <root>
        <mxCell id="0" />
        <mxCell id="1" parent="0" />
        <mxCell id="RDLW753o5u6X-Bz460YA-1" value="Admin" style="shape=umlActor;verticalLabelPosition=bottom;verticalAlign=top;html=1;outlineConnect=0;" parent="1" vertex="1">
          <mxGeometry x="140" y="330" width="30" height="60" as="geometry" />
        </mxCell>
        <mxCell id="RDLW753o5u6X-Bz460YA-8" value="" style="swimlane;startSize=0;" parent="1" vertex="1">
          <mxGeometry x="250" y="100" width="330" height="510" as="geometry" />
        </mxCell>
        <mxCell id="RDLW753o5u6X-Bz460YA-24" style="edgeStyle=none;shape=connector;rounded=0;orthogonalLoop=1;jettySize=auto;html=1;exitX=0;exitY=0.5;exitDx=0;exitDy=0;strokeColor=default;align=center;verticalAlign=middle;fontFamily=Helvetica;fontSize=11;fontColor=default;labelBackgroundColor=default;endArrow=none;endFill=0;" parent="RDLW753o5u6X-Bz460YA-8" source="RDLW753o5u6X-Bz460YA-4" edge="1">
          <mxGeometry relative="1" as="geometry">
            <mxPoint x="-70" y="260" as="targetPoint" />
          </mxGeometry>
        </mxCell>
        <mxCell id="RDLW753o5u6X-Bz460YA-4" value="Login" style="ellipse;whiteSpace=wrap;html=1;" parent="RDLW753o5u6X-Bz460YA-8" vertex="1">
          <mxGeometry x="60" y="20" width="208.13" height="50" as="geometry" />
        </mxCell>
        <mxCell id="RDLW753o5u6X-Bz460YA-5" value="Create&amp;nbsp; Posts" style="ellipse;whiteSpace=wrap;html=1;" parent="RDLW753o5u6X-Bz460YA-8" vertex="1">
          <mxGeometry x="182.5" y="180" width="125" height="60" as="geometry" />
        </mxCell>
        <mxCell id="RDLW753o5u6X-Bz460YA-19" style="rounded=0;orthogonalLoop=1;jettySize=auto;html=1;exitX=0;exitY=0.5;exitDx=0;exitDy=0;endArrow=none;endFill=0;" parent="RDLW753o5u6X-Bz460YA-8" source="RDLW753o5u6X-Bz460YA-9" edge="1">
          <mxGeometry relative="1" as="geometry">
            <mxPoint x="-70" y="260" as="targetPoint" />
          </mxGeometry>
        </mxCell>
        <mxCell id="RDLW753o5u6X-Bz460YA-9" value="User Management" style="ellipse;whiteSpace=wrap;html=1;" parent="RDLW753o5u6X-Bz460YA-8" vertex="1">
          <mxGeometry x="40" y="90" width="120" height="60" as="geometry" />
        </mxCell>
        <mxCell id="RDLW753o5u6X-Bz460YA-20" style="edgeStyle=none;shape=connector;rounded=0;orthogonalLoop=1;jettySize=auto;html=1;exitX=0;exitY=0.5;exitDx=0;exitDy=0;strokeColor=default;align=center;verticalAlign=middle;fontFamily=Helvetica;fontSize=11;fontColor=default;labelBackgroundColor=default;endArrow=none;endFill=0;" parent="RDLW753o5u6X-Bz460YA-8" source="RDLW753o5u6X-Bz460YA-10" edge="1">
          <mxGeometry relative="1" as="geometry">
            <mxPoint x="-70" y="260" as="targetPoint" />
          </mxGeometry>
        </mxCell>
        <mxCell id="RDLW753o5u6X-Bz460YA-10" value="Post Management" style="ellipse;whiteSpace=wrap;html=1;" parent="RDLW753o5u6X-Bz460YA-8" vertex="1">
          <mxGeometry x="40" y="170" width="120" height="60" as="geometry" />
        </mxCell>
        <mxCell id="RDLW753o5u6X-Bz460YA-21" style="edgeStyle=none;shape=connector;rounded=0;orthogonalLoop=1;jettySize=auto;html=1;exitX=0;exitY=0.5;exitDx=0;exitDy=0;strokeColor=default;align=center;verticalAlign=middle;fontFamily=Helvetica;fontSize=11;fontColor=default;labelBackgroundColor=default;endArrow=none;endFill=0;" parent="RDLW753o5u6X-Bz460YA-8" source="RDLW753o5u6X-Bz460YA-11" edge="1">
          <mxGeometry relative="1" as="geometry">
            <mxPoint x="-70" y="260" as="targetPoint" />
          </mxGeometry>
        </mxCell>
        <mxCell id="RDLW753o5u6X-Bz460YA-11" value="Tag Management" style="ellipse;whiteSpace=wrap;html=1;" parent="RDLW753o5u6X-Bz460YA-8" vertex="1">
          <mxGeometry x="40" y="250" width="120" height="60" as="geometry" />
        </mxCell>
        <mxCell id="RDLW753o5u6X-Bz460YA-26" style="edgeStyle=none;shape=connector;rounded=0;orthogonalLoop=1;jettySize=auto;html=1;exitX=0;exitY=0.5;exitDx=0;exitDy=0;strokeColor=default;align=center;verticalAlign=middle;fontFamily=Helvetica;fontSize=11;fontColor=default;labelBackgroundColor=default;endArrow=none;endFill=0;" parent="RDLW753o5u6X-Bz460YA-8" source="RDLW753o5u6X-Bz460YA-12" edge="1">
          <mxGeometry relative="1" as="geometry">
            <mxPoint x="-70" y="260" as="targetPoint" />
          </mxGeometry>
        </mxCell>
        <mxCell id="RDLW753o5u6X-Bz460YA-12" value="Category Management" style="ellipse;whiteSpace=wrap;html=1;" parent="RDLW753o5u6X-Bz460YA-8" vertex="1">
          <mxGeometry x="40" y="330" width="120" height="60" as="geometry" />
        </mxCell>
        <mxCell id="RDLW753o5u6X-Bz460YA-22" style="edgeStyle=none;shape=connector;rounded=0;orthogonalLoop=1;jettySize=auto;html=1;exitX=0;exitY=0.5;exitDx=0;exitDy=0;strokeColor=default;align=center;verticalAlign=middle;fontFamily=Helvetica;fontSize=11;fontColor=default;labelBackgroundColor=default;endArrow=none;endFill=0;" parent="RDLW753o5u6X-Bz460YA-8" source="RDLW753o5u6X-Bz460YA-6" edge="1">
          <mxGeometry relative="1" as="geometry">
            <mxPoint x="-70" y="260" as="targetPoint" />
          </mxGeometry>
        </mxCell>
        <mxCell id="RDLW753o5u6X-Bz460YA-6" value="Logout" style="ellipse;whiteSpace=wrap;html=1;" parent="RDLW753o5u6X-Bz460YA-8" vertex="1">
          <mxGeometry x="52.19" y="410" width="223.75" height="50" as="geometry" />
        </mxCell>
        <mxCell id="RDLW753o5u6X-Bz460YA-14" value="Read/Search Posts" style="ellipse;whiteSpace=wrap;html=1;" parent="RDLW753o5u6X-Bz460YA-8" vertex="1">
          <mxGeometry x="175" y="340" width="115" height="60" as="geometry" />
        </mxCell>
        <mxCell id="RDLW753o5u6X-Bz460YA-18" value="Web Blog Application" style="text;html=1;align=center;verticalAlign=middle;whiteSpace=wrap;rounded=0;" parent="RDLW753o5u6X-Bz460YA-8" vertex="1">
          <mxGeometry x="190" y="480" width="140" height="30" as="geometry" />
        </mxCell>
        <mxCell id="YGJ77G5vMOsezO_WCynO-6" value="Read Tags" style="ellipse;whiteSpace=wrap;html=1;" parent="RDLW753o5u6X-Bz460YA-8" vertex="1">
          <mxGeometry x="175" y="260" width="140" height="60" as="geometry" />
        </mxCell>
        <mxCell id="YGJ77G5vMOsezO_WCynO-7" value="Read Categories" style="ellipse;whiteSpace=wrap;html=1;" parent="RDLW753o5u6X-Bz460YA-8" vertex="1">
          <mxGeometry x="182.5" y="100" width="125" height="60" as="geometry" />
        </mxCell>
        <mxCell id="YGJ77G5vMOsezO_WCynO-8" style="edgeStyle=none;shape=connector;rounded=0;orthogonalLoop=1;jettySize=auto;html=1;exitX=1;exitY=0.5;exitDx=0;exitDy=0;strokeColor=default;align=center;verticalAlign=middle;fontFamily=Helvetica;fontSize=11;fontColor=default;labelBackgroundColor=default;endArrow=none;endFill=0;" parent="RDLW753o5u6X-Bz460YA-8" source="YGJ77G5vMOsezO_WCynO-6" edge="1">
          <mxGeometry relative="1" as="geometry">
            <mxPoint x="430" y="200" as="targetPoint" />
            <mxPoint x="290" y="280" as="sourcePoint" />
          </mxGeometry>
        </mxCell>
        <mxCell id="RDLW753o5u6X-Bz460YA-31" value="Reader" style="shape=umlActor;verticalLabelPosition=bottom;verticalAlign=top;html=1;outlineConnect=0;" parent="1" vertex="1">
          <mxGeometry x="680" y="270" width="30" height="60" as="geometry" />
        </mxCell>
        <mxCell id="RDLW753o5u6X-Bz460YA-27" style="edgeStyle=none;shape=connector;rounded=0;orthogonalLoop=1;jettySize=auto;html=1;exitX=1;exitY=0.5;exitDx=0;exitDy=0;strokeColor=default;align=center;verticalAlign=middle;fontFamily=Helvetica;fontSize=11;fontColor=default;labelBackgroundColor=default;endArrow=none;endFill=0;" parent="1" edge="1" source="RDLW753o5u6X-Bz460YA-6">
          <mxGeometry relative="1" as="geometry">
            <mxPoint x="680" y="300" as="targetPoint" />
            <mxPoint x="510.00000000000006" y="535" as="sourcePoint" />
          </mxGeometry>
        </mxCell>
        <mxCell id="YGJ77G5vMOsezO_WCynO-2" style="edgeStyle=none;shape=connector;rounded=0;orthogonalLoop=1;jettySize=auto;html=1;exitX=1;exitY=0.5;exitDx=0;exitDy=0;strokeColor=default;align=center;verticalAlign=middle;fontFamily=Helvetica;fontSize=11;fontColor=default;labelBackgroundColor=default;endArrow=none;endFill=0;" parent="1" edge="1">
          <mxGeometry relative="1" as="geometry">
            <mxPoint x="680" y="300" as="targetPoint" />
            <mxPoint x="470" y="158" as="sourcePoint" />
            <Array as="points" />
          </mxGeometry>
        </mxCell>
        <mxCell id="YGJ77G5vMOsezO_WCynO-5" style="edgeStyle=none;shape=connector;rounded=0;orthogonalLoop=1;jettySize=auto;html=1;exitX=1;exitY=0.5;exitDx=0;exitDy=0;strokeColor=default;align=center;verticalAlign=middle;fontFamily=Helvetica;fontSize=11;fontColor=default;labelBackgroundColor=default;endArrow=none;endFill=0;" parent="1" source="RDLW753o5u6X-Bz460YA-5" edge="1">
          <mxGeometry relative="1" as="geometry">
            <mxPoint x="680" y="300" as="targetPoint" />
            <mxPoint x="560" y="280" as="sourcePoint" />
          </mxGeometry>
        </mxCell>
        <mxCell id="YGJ77G5vMOsezO_WCynO-10" style="edgeStyle=none;shape=connector;rounded=0;orthogonalLoop=1;jettySize=auto;html=1;exitX=1;exitY=0.5;exitDx=0;exitDy=0;strokeColor=default;align=center;verticalAlign=middle;fontFamily=Helvetica;fontSize=11;fontColor=default;labelBackgroundColor=default;endArrow=none;endFill=0;" parent="1" source="YGJ77G5vMOsezO_WCynO-7" edge="1">
          <mxGeometry relative="1" as="geometry">
            <mxPoint x="680" y="300" as="targetPoint" />
            <mxPoint x="710" y="260" as="sourcePoint" />
          </mxGeometry>
        </mxCell>
        <mxCell id="TFtgnq99FK7ZdON2AIv0-1" style="edgeStyle=none;shape=connector;rounded=0;orthogonalLoop=1;jettySize=auto;html=1;exitX=1;exitY=0.5;exitDx=0;exitDy=0;strokeColor=default;align=center;verticalAlign=middle;fontFamily=Helvetica;fontSize=11;fontColor=default;labelBackgroundColor=default;endArrow=none;endFill=0;" edge="1" parent="1" source="RDLW753o5u6X-Bz460YA-14">
          <mxGeometry relative="1" as="geometry">
            <mxPoint x="680" y="300" as="targetPoint" />
            <mxPoint x="800" y="360" as="sourcePoint" />
          </mxGeometry>
        </mxCell>
      </root>
    </mxGraphModel>
  </diagram>
</mxfile>
